<?xml version="1.0" standalone="no"?>
<!DOCTYPE svg PUBLIC "-//W3C//DTD SVG 20010904//EN"
 "http://www.w3.org/TR/2001/REC-SVG-20010904/DTD/svg10.dtd">
<svg version="1.0" xmlns="http://www.w3.org/2000/svg"
 width="283.000000pt" height="283.000000pt" viewBox="0 0 283.000000 283.000000"
 preserveAspectRatio="xMidYMid meet">
<metadata>
Created by potrace 1.14, written by Peter Selinger 2001-2017
</metadata>
<g transform="translate(0.000000,283.000000) scale(0.100000,-0.100000)"
fill="#000000" stroke="none">
<path d="M1345 2765 c-5 -2 -44 -11 -85 -20 -240 -55 -458 -247 -538 -475 -48
-135 -47 -117 -47 -840 0 -770 -2 -744 76 -905 170 -348 574 -516 939 -389
184 64 336 194 428 365 27 49 55 129 79 218 4 14 8 323 10 686 3 703 2 722
-47 860 -79 227 -289 417 -532 481 -54 14 -254 28 -283 19z m243 -61 c212 -43
399 -189 497 -389 75 -153 75 -156 75 -894 0 -357 -3 -656 -6 -665 -3 -9 -16
-16 -28 -16 -18 0 -24 9 -33 55 -8 36 -9 65 -2 87 14 47 13 109 -1 152 -11 34
-10 40 14 76 30 45 33 85 11 137 -8 19 -15 59 -15 87 0 76 -17 123 -62 172
-43 47 -116 94 -145 94 -30 0 -119 -57 -155 -99 -39 -46 -58 -98 -58 -160 0
-39 -1 -41 -31 -41 -26 0 -296 -74 -306 -84 -2 -2 3 -8 10 -14 10 -9 42 -3
133 23 l118 35 231 -2 230 -3 14 -42 c14 -40 14 -43 -13 -82 -25 -36 -28 -46
-21 -83 5 -24 7 -68 6 -98 -1 -30 -3 -77 -4 -105 -1 -27 2 -62 7 -77 8 -27 7
-28 -26 -28 -33 0 -34 1 -47 58 -9 42 -10 65 -2 85 6 16 11 55 11 88 0 55 -1
59 -23 59 -22 0 -24 -4 -26 -62 0 -35 -2 -88 -3 -118 -2 -30 1 -67 6 -82 8
-27 7 -28 -27 -28 -34 0 -34 1 -47 58 -10 48 -9 67 3 108 13 44 14 90 2 102
-3 3 -37 0 -77 -7 -164 -27 -324 -143 -334 -243 l-4 -43 22 30 c88 118 206
197 312 212 l49 6 -6 -33 c-8 -40 -24 -60 -46 -60 -56 0 -182 -90 -228 -163
-23 -36 -23 -40 -7 -51 15 -12 21 -8 48 33 17 25 50 60 73 77 43 33 129 71
139 62 3 -3 8 -22 11 -42 5 -29 3 -36 -11 -36 -48 0 -154 -87 -171 -139 -6
-20 8 -51 24 -51 4 0 13 15 19 34 7 19 29 49 50 67 l37 33 9 -43 c8 -35 6 -46
-6 -55 -41 -30 -53 -114 -23 -160 9 -13 32 -32 52 -41 31 -15 43 -16 94 -5 61
13 98 39 69 48 -8 3 -36 26 -62 53 -46 47 -78 119 -78 176 l0 23 155 0 c85 0
155 -2 155 -3 0 -16 -46 -130 -72 -180 -45 -85 -183 -223 -271 -272 -124 -68
-204 -89 -352 -89 -148 -1 -224 17 -350 82 -96 50 -237 191 -287 287 -77 150
-81 175 -86 513 l-4 302 35 0 c43 0 47 -9 47 -108 0 -60 -6 -90 -26 -137 -28
-65 -41 -125 -28 -125 14 0 53 63 76 121 21 56 30 179 15 230 -6 24 -4 27 26
32 17 3 36 1 40 -3 5 -4 11 -43 14 -86 9 -134 -33 -254 -125 -355 -43 -47 -56
-78 -39 -95 10 -10 127 129 155 185 42 84 55 157 50 273 l-5 97 34 12 c19 6
36 9 39 6 9 -8 21 -143 17 -192 -12 -170 -89 -321 -217 -428 -54 -44 -68 -68
-50 -86 8 -8 87 55 139 111 110 118 168 266 169 428 1 52 -3 116 -7 142 l-8
46 69 37 c188 98 341 290 415 520 31 92 177 640 177 660 0 17 -60 40 -161 61
-95 19 -216 15 -313 -12 -225 -60 -406 -241 -482 -478 -24 -78 -52 -105 -39
-40 39 209 190 403 390 499 148 72 303 92 463 59z m12 -69 c36 -9 72 -20 80
-25 11 -7 1 -56 -60 -287 -40 -153 -84 -311 -97 -352 -85 -263 -267 -463 -499
-550 -73 -28 -189 -51 -255 -51 l-49 0 0 93 0 94 55 12 c222 50 395 250 395
455 0 32 -2 34 -67 54 -102 31 -166 42 -244 42 -81 0 -78 -9 -32 110 85 219
285 382 511 419 65 11 184 5 262 -14z m-780 -591 c0 -19 -7 -49 -16 -67 -18
-35 -63 -87 -76 -87 -4 0 -8 40 -8 90 0 98 -5 90 65 103 30 5 35 -1 35 -39z
m98 -3 c7 -90 -57 -190 -150 -237 l-48 -24 1 32 c0 27 8 39 42 63 57 42 87 97
87 163 l0 53 33 -3 c30 -3 32 -5 35 -47z m101 29 c24 0 8 -116 -24 -179 -46
-91 -150 -177 -252 -206 -21 -6 -23 -3 -23 27 0 30 5 35 45 52 105 43 180 146
192 263 5 49 8 54 27 49 12 -3 27 -6 35 -6z m96 -30 c28 -11 28 -20 9 -115
-27 -128 -170 -268 -322 -315 -82 -25 -84 -25 -80 7 2 22 12 29 55 44 153 51
269 187 288 337 7 56 9 57 50 42z m826 -499 c78 -52 102 -80 119 -139 l8 -31
-51 -3 c-29 -2 -107 -2 -174 0 -115 3 -123 4 -123 23 0 29 24 70 62 106 31 29
96 73 109 73 3 0 25 -13 50 -29z m119 -226 c0 -13 -26 -15 -170 -15 -144 0
-170 2 -170 15 0 13 26 15 170 15 144 0 170 -2 170 -15z m-188 -862 l21 -23
-33 0 c-62 0 -98 58 -69 112 10 19 13 18 36 -23 13 -24 34 -54 45 -66z"/>
<path d="M1870 2172 l0 -372 -59 0 c-51 0 -59 -3 -57 -17 2 -14 13 -18 47 -19
68 -2 69 -3 69 -24 0 -18 -7 -20 -84 -20 -79 0 -85 -1 -83 -20 1 -18 8 -20 84
-20 76 0 83 -2 83 -20 0 -13 7 -20 20 -20 20 0 20 7 20 433 0 421 -1 434 -20
452 -20 18 -20 17 -20 -353z"/>
<path d="M1746 2343 c7 -62 29 -101 60 -109 36 -9 48 7 39 52 -7 40 -62 104
-89 104 -13 0 -15 -8 -10 -47z m66 -32 c9 -18 14 -40 11 -49 -9 -22 -53 31
-53 64 0 34 21 27 42 -15z"/>
<path d="M2005 2301 c-52 -32 -69 -58 -69 -109 -1 -45 0 -47 24 -44 54 8 86
65 78 140 l-3 32 -30 -19z m15 -50 c0 -32 -34 -81 -56 -81 -23 0 -16 46 12 79
32 39 44 39 44 2z"/>
<path d="M1714 2073 c9 -64 35 -106 76 -119 46 -15 60 -8 60 30 0 44 -33 92
-79 116 -59 30 -65 27 -57 -27z m83 -25 c29 -31 41 -78 20 -78 -29 0 -67 44
-74 84 -6 35 -5 38 13 28 10 -6 29 -21 41 -34z"/>
<path d="M2033 2070 c-82 -47 -129 -137 -104 -202 9 -24 13 -25 46 -18 47 11
64 26 87 77 16 37 38 173 27 173 -2 0 -28 -14 -56 -30z m22 -88 c-5 -33 -16
-55 -40 -79 -44 -44 -65 -43 -65 2 0 47 21 86 67 124 44 36 49 29 38 -47z"/>
<path d="M2075 1840 c-8 -14 3 -30 21 -30 8 0 14 9 14 20 0 21 -24 28 -35 10z"/>
<path d="M1970 1789 c0 -25 33 -22 38 4 2 12 -3 17 -17 17 -15 0 -21 -6 -21
-21z"/>
<path d="M2057 1734 c-14 -15 -6 -34 14 -34 14 0 19 5 17 17 -3 18 -20 27 -31
17z"/>
<path d="M1991 1667 c-7 -7 -7 -14 0 -23 12 -15 39 -7 39 11 0 18 -25 26 -39
12z"/>
<path d="M2075 1610 c-8 -14 3 -30 21 -30 8 0 14 9 14 20 0 21 -24 28 -35 10z"/>
<path d="M1426 1525 c-14 -13 -29 -38 -32 -55 -4 -16 -10 -30 -15 -30 -5 0 -9
-43 -9 -95 0 -80 2 -93 15 -89 11 5 15 23 15 75 l0 69 100 0 100 0 -3 -37 c-1
-29 2 -38 16 -41 15 -3 17 5 17 57 0 45 -4 61 -14 61 -7 0 -16 14 -20 30 -9
47 -51 80 -101 80 -31 0 -49 -7 -69 -25z m119 -30 c45 -44 34 -55 -50 -55 -61
0 -75 3 -75 15 0 25 47 65 75 65 14 0 37 -11 50 -25z"/>
<path d="M1246 1401 c-15 -16 -15 -20 -1 -31 18 -15 45 -7 45 13 0 8 -6 20
-13 26 -11 8 -18 6 -31 -8z"/>
<path d="M1228 1318 c-33 -35 -34 -40 -8 -63 19 -17 19 -18 -15 -58 -39 -45
-85 -131 -85 -159 0 -10 -7 -18 -15 -18 -12 0 -15 -20 -15 -120 0 -113 1 -120
20 -120 19 0 20 7 20 105 l0 105 135 0 135 0 0 -124 c0 -114 8 -152 27 -132
11 11 6 278 -5 285 -6 4 -18 26 -27 50 -8 24 -36 72 -61 108 l-46 64 21 23 21
22 -33 32 c-18 18 -35 31 -37 31 -3 -1 -17 -15 -32 -31z m43 -41 c-13 -13 -26
-3 -16 12 3 6 11 8 17 5 6 -4 6 -10 -1 -17z m32 -116 c43 -59 67 -105 67 -126
0 -13 -17 -15 -110 -15 -60 0 -110 2 -110 4 0 27 96 186 111 186 4 0 23 -22
42 -49z"/>
<path d="M1819 1195 c-22 -49 -18 -88 10 -108 10 -6 23 -21 29 -32 l11 -20 7
20 c4 11 19 29 32 39 21 17 24 25 19 63 -5 51 -30 83 -64 83 -19 0 -28 -10
-44 -45z m75 3 c32 -45 15 -98 -31 -98 -39 0 -48 41 -20 98 13 28 32 28 51 0z"/>
<path d="M1515 1176 c-28 -28 -48 -95 -39 -131 4 -15 19 -36 35 -47 16 -12 29
-30 29 -40 0 -23 19 -23 27 0 4 9 22 31 40 48 39 37 42 68 14 131 -18 39 -45
63 -71 63 -6 0 -22 -11 -35 -24z m70 -30 c26 -39 31 -93 10 -116 -41 -45 -102
-8 -92 56 7 44 32 84 52 84 8 0 22 -11 30 -24z"/>
<path d="M1224 938 c-42 -32 -44 -37 -44 -100 0 -45 3 -58 15 -58 11 0 15 12
15 50 0 38 5 54 22 70 12 11 27 20 33 20 21 0 56 -47 54 -71 -5 -55 1 -89 16
-89 12 0 15 14 15 69 0 68 -1 70 -37 100 -45 37 -52 38 -89 9z"/>
<path d="M1035 735 c-146 -32 -272 -104 -239 -137 3 -4 38 11 77 32 332 179
728 23 855 -338 17 -47 20 -50 37 -39 16 12 16 18 5 53 -60 187 -224 349 -413
409 -99 32 -233 40 -322 20z"/>
<path d="M1115 623 c-86 -14 -138 -29 -185 -53 -84 -43 -93 -52 -78 -73 12
-16 16 -15 58 13 137 92 357 93 500 2 25 -16 66 -50 93 -77 48 -49 117 -171
117 -207 0 -21 27 -36 40 -22 15 16 -27 125 -74 194 -67 97 -156 164 -268 199
-60 19 -161 31 -203 24z"/>
<path d="M1038 491 c-58 -19 -128 -57 -128 -70 0 -4 5 -12 11 -18 7 -7 31 0
81 26 65 33 77 36 157 36 75 0 94 -4 151 -31 36 -17 84 -51 108 -75 44 -45 92
-129 92 -161 0 -13 8 -18 26 -18 30 0 28 12 -16 105 -37 78 -109 149 -189 187
-84 40 -206 48 -293 19z"/>
<path d="M1066 364 c-58 -21 -70 -34 -49 -49 15 -11 23 -10 48 3 45 25 150 22
201 -5 47 -25 92 -74 106 -115 7 -20 17 -28 34 -28 24 0 24 0 9 37 -20 48 -57
96 -94 123 -69 49 -176 63 -255 34z"/>
<path d="M1807 299 c4 -15 9 -16 24 -8 25 13 24 16 -5 21 -19 4 -22 1 -19 -13z"/>
<path d="M1275 2544 c-5 -1 -22 -5 -37 -8 -35 -8 -84 -50 -105 -90 -21 -41
-21 -132 0 -173 54 -103 195 -123 276 -39 66 68 73 177 15 246 -38 44 -109 75
-149 64z m91 -53 c82 -50 84 -194 4 -251 -113 -80 -260 34 -214 165 14 41 49
83 79 95 35 15 99 11 131 -9z"/>
<path d="M1254 2465 c-69 -29 -93 -104 -52 -165 47 -70 146 -62 182 14 42 89
-43 188 -130 151z m76 -35 c29 -15 40 -61 24 -98 -26 -62 -92 -66 -130 -8 -41
64 37 143 106 106z"/>
</g>
</svg>
